<mxfile host="app.diagrams.net" modified="2021-10-12T15:17:51.934Z" agent="5.0 (Macintosh; Intel Mac OS X 10_15_7) AppleWebKit/605.1.15 (KHTML, like Gecko) Version/15.0 Safari/605.1.15" etag="TlgMs0gWEAuKoy9GS-kY" version="15.3.3" type="github" pages="2">
  <diagram name="Page-1" id="aaaa8250-4180-3840-79b5-4cada1eebb92">
    <mxGraphModel dx="2365" dy="1593" grid="1" gridSize="10" guides="1" tooltips="1" connect="1" arrows="1" fold="1" page="1" pageScale="1" pageWidth="850" pageHeight="1100" background="none" math="0" shadow="0">
      <root>
        <mxCell id="0" />
        <mxCell id="1" parent="0" />
        <mxCell id="d5ac148becb70bc-7" value="" style="verticalLabelPosition=bottom;html=1;verticalAlign=top;strokeWidth=1;dashed=0;shape=mxgraph.aws3d.flatDoubleEdge;fillColor=#000000;aspect=fixed;rounded=1;shadow=0;comic=0;fontFamily=Verdana;fontSize=12;flipV=1;" parent="1" vertex="1">
          <mxGeometry x="1602" y="1328" width="584" height="333" as="geometry" />
        </mxCell>
        <mxCell id="1a8abee3a6cfdf20-38" value="" style="verticalLabelPosition=bottom;html=1;verticalAlign=top;strokeWidth=1;dashed=0;shape=mxgraph.aws3d.flatDoubleEdge;fillColor=#000000;aspect=fixed;rounded=1;shadow=0;comic=0;fontFamily=Verdana;fontSize=12;flipV=1;" parent="1" vertex="1">
          <mxGeometry x="972" y="992" width="626" height="357" as="geometry" />
        </mxCell>
        <mxCell id="1a8abee3a6cfdf20-28" value="" style="verticalLabelPosition=bottom;html=1;verticalAlign=top;strokeWidth=1;dashed=0;shape=mxgraph.aws3d.flatDoubleEdge;fillColor=#000000;aspect=fixed;rounded=1;shadow=0;comic=0;fontFamily=Verdana;fontSize=12;flipV=1;" parent="1" vertex="1">
          <mxGeometry x="262" y="779" width="512" height="292" as="geometry" />
        </mxCell>
        <mxCell id="1a8abee3a6cfdf20-3" value="" style="edgeStyle=isometricEdgeStyle;endArrow=none;html=1;labelBackgroundColor=none;strokeWidth=5;fontFamily=Verdana;fontSize=12" parent="1" edge="1">
          <mxGeometry width="50" height="100" relative="1" as="geometry">
            <mxPoint x="352" y="1308" as="sourcePoint" />
            <mxPoint x="262" y="1068" as="targetPoint" />
            <Array as="points">
              <mxPoint x="302" y="1208" />
            </Array>
          </mxGeometry>
        </mxCell>
        <mxCell id="1a8abee3a6cfdf20-4" value="" style="verticalLabelPosition=bottom;html=1;verticalAlign=top;strokeWidth=1;dashed=0;shape=mxgraph.aws3d.dynamoDb;fillColor=#ECECEC;strokeColor=#5E5E5E;aspect=fixed;rounded=1;shadow=0;comic=0;fontSize=12" parent="1" vertex="1">
          <mxGeometry x="188" y="1298" width="181.5" height="210" as="geometry" />
        </mxCell>
        <mxCell id="1a8abee3a6cfdf20-5" value="" style="edgeStyle=isometricEdgeStyle;endArrow=none;html=1;labelBackgroundColor=none;strokeColor=#000000;strokeWidth=5;fontFamily=Verdana;fontSize=12" parent="1" edge="1">
          <mxGeometry width="50" height="100" relative="1" as="geometry">
            <mxPoint x="422" y="1338" as="sourcePoint" />
            <mxPoint x="972" y="1358" as="targetPoint" />
            <Array as="points">
              <mxPoint x="682" y="1348" />
            </Array>
          </mxGeometry>
        </mxCell>
        <mxCell id="1a8abee3a6cfdf20-6" value="" style="verticalLabelPosition=bottom;html=1;verticalAlign=top;strokeWidth=1;dashed=0;shape=mxgraph.aws3d.elasticLoadBalancing;fillColor=#ECECEC;strokeColor=#5E5E5E;aspect=fixed;rounded=1;shadow=0;comic=0;fontSize=12;" parent="1" vertex="1">
          <mxGeometry x="312" y="948" width="92" height="88.17" as="geometry" />
        </mxCell>
        <mxCell id="1a8abee3a6cfdf20-7" value="" style="verticalLabelPosition=bottom;html=1;verticalAlign=top;strokeWidth=1;dashed=0;shape=mxgraph.aws3d.workflowService;fillColor=#ECECEC;strokeColor=#5E5E5E;aspect=fixed;rounded=1;shadow=0;comic=0;fontSize=12" parent="1" vertex="1">
          <mxGeometry x="511" y="788" width="182.20000000000002" height="148.4" as="geometry" />
        </mxCell>
        <mxCell id="1a8abee3a6cfdf20-8" value="" style="verticalLabelPosition=bottom;html=1;verticalAlign=top;strokeWidth=1;dashed=0;shape=mxgraph.aws3d.cloudfront;fillColor=#ECECEC;strokeColor=#5E5E5E;aspect=fixed;rounded=1;shadow=0;comic=0;fontSize=12" parent="1" vertex="1">
          <mxGeometry x="312" y="618" width="103.8" height="169.79999999999998" as="geometry" />
        </mxCell>
        <mxCell id="1a8abee3a6cfdf20-9" value="" style="verticalLabelPosition=bottom;html=1;verticalAlign=top;strokeWidth=1;dashed=0;shape=mxgraph.aws3d.internetGateway;fillColor=#ECECEC;strokeColor=#5E5E5E;aspect=fixed;rounded=1;shadow=0;comic=0;fontSize=12;flipH=1;flipV=0;" parent="1" vertex="1">
          <mxGeometry x="782" y="378" width="116.7" height="102.8" as="geometry" />
        </mxCell>
        <mxCell id="1a8abee3a6cfdf20-10" value="" style="verticalLabelPosition=bottom;html=1;verticalAlign=top;strokeWidth=1;dashed=0;shape=mxgraph.aws3d.internetGateway;fillColor=#ECECEC;strokeColor=#5E5E5E;aspect=fixed;rounded=1;shadow=0;comic=0;fontSize=12;flipH=1;flipV=0;" parent="1" vertex="1">
          <mxGeometry x="1694" y="827" width="116.7" height="102.8" as="geometry" />
        </mxCell>
        <mxCell id="1a8abee3a6cfdf20-11" value="" style="verticalLabelPosition=bottom;html=1;verticalAlign=top;strokeWidth=1;dashed=0;shape=mxgraph.aws3d.internetGateway;fillColor=#ECECEC;strokeColor=#5E5E5E;aspect=fixed;rounded=1;shadow=0;comic=0;fontSize=12;flipH=1;flipV=0;" parent="1" vertex="1">
          <mxGeometry x="2302" y="1151" width="116.7" height="102.8" as="geometry" />
        </mxCell>
        <mxCell id="1a8abee3a6cfdf20-12" value="" style="verticalLabelPosition=bottom;html=1;verticalAlign=top;strokeWidth=1;dashed=0;shape=mxgraph.aws3d.redshift;fillColor=#CC0000;strokeColor=#E6E6E6;aspect=fixed;rounded=1;shadow=0;comic=0;fontSize=12" parent="1" vertex="1">
          <mxGeometry x="1130" y="788" width="150" height="190" as="geometry" />
        </mxCell>
        <mxCell id="1a8abee3a6cfdf20-13" value="" style="verticalLabelPosition=bottom;html=1;verticalAlign=top;strokeWidth=1;dashed=0;shape=mxgraph.aws3d.simpleDb2;fillColor=#ECECEC;strokeColor=#5E5E5E;aspect=fixed;rounded=1;shadow=0;comic=0;fontSize=12" parent="1" vertex="1">
          <mxGeometry x="764" y="595" width="181.5" height="192.6" as="geometry" />
        </mxCell>
        <mxCell id="1a8abee3a6cfdf20-14" value="" style="verticalLabelPosition=bottom;html=1;verticalAlign=top;strokeWidth=1;dashed=0;shape=mxgraph.aws3d.snapshot;fillColor=#4286c5;strokeColor=#57A2D8;aspect=fixed;rounded=1;shadow=0;comic=0;fontSize=12" parent="1" vertex="1">
          <mxGeometry x="2000" y="1376" width="92" height="60" as="geometry" />
        </mxCell>
        <mxCell id="1a8abee3a6cfdf20-15" value="" style="verticalLabelPosition=bottom;html=1;verticalAlign=top;strokeWidth=1;dashed=0;shape=mxgraph.aws3d.application_server;fillColor=#ECECEC;strokeColor=#5E5E5E;aspect=fixed;rounded=1;shadow=0;comic=0;fontSize=12" parent="1" vertex="1">
          <mxGeometry x="1095" y="1130" width="123" height="124" as="geometry" />
        </mxCell>
        <mxCell id="1a8abee3a6cfdf20-16" value="" style="verticalLabelPosition=bottom;html=1;verticalAlign=top;strokeWidth=1;dashed=0;shape=mxgraph.aws3d.application_server;fillColor=#ECECEC;strokeColor=#5E5E5E;aspect=fixed;rounded=1;shadow=0;comic=0;fontSize=12" parent="1" vertex="1">
          <mxGeometry x="1025" y="1170" width="123" height="124" as="geometry" />
        </mxCell>
        <mxCell id="1a8abee3a6cfdf20-17" value="" style="verticalLabelPosition=bottom;html=1;verticalAlign=top;strokeWidth=1;dashed=0;shape=mxgraph.aws3d.application_server;fillColor=#ECECEC;strokeColor=#5E5E5E;aspect=fixed;rounded=1;shadow=0;comic=0;fontSize=12" parent="1" vertex="1">
          <mxGeometry x="1165" y="1170" width="123" height="124" as="geometry" />
        </mxCell>
        <mxCell id="1a8abee3a6cfdf20-18" value="" style="verticalLabelPosition=bottom;html=1;verticalAlign=top;strokeWidth=1;dashed=0;shape=mxgraph.aws3d.application_server;fillColor=#ECECEC;strokeColor=#5E5E5E;aspect=fixed;rounded=1;shadow=0;comic=0;fontSize=12" parent="1" vertex="1">
          <mxGeometry x="1095" y="1210" width="123" height="124" as="geometry" />
        </mxCell>
        <mxCell id="1a8abee3a6cfdf20-19" value="" style="verticalLabelPosition=bottom;html=1;verticalAlign=top;strokeWidth=1;dashed=0;shape=mxgraph.aws3d.elasticBeanstalk;fillColor=#ECECEC;strokeColor=#5E5E5E;aspect=fixed;rounded=1;shadow=0;comic=0;fontSize=12" parent="1" vertex="1">
          <mxGeometry x="1352" y="1333" width="182" height="140" as="geometry" />
        </mxCell>
        <mxCell id="1a8abee3a6cfdf20-20" value="" style="verticalLabelPosition=bottom;html=1;verticalAlign=top;strokeWidth=1;dashed=0;shape=mxgraph.aws3d.simpleDb2;fillColor=#004C99;strokeColor=#99CCFF;aspect=fixed;rounded=1;shadow=0;comic=0;fontSize=12" parent="1" vertex="1">
          <mxGeometry x="1662" y="1129" width="181.5" height="192.6" as="geometry" />
        </mxCell>
        <mxCell id="1a8abee3a6cfdf20-22" value="" style="verticalLabelPosition=bottom;html=1;verticalAlign=top;strokeWidth=1;dashed=0;shape=mxgraph.aws3d.dataCenter;fillColor=#ffffff;strokeColor=#5E5E5E;aspect=fixed;rounded=1;shadow=0;comic=0;fontSize=12" parent="1" vertex="1">
          <mxGeometry x="1386" y="972" width="123" height="142" as="geometry" />
        </mxCell>
        <mxCell id="1a8abee3a6cfdf20-23" value="" style="verticalLabelPosition=bottom;html=1;verticalAlign=top;strokeWidth=1;dashed=0;shape=mxgraph.aws3d.application2;fillColor=#86E83A;strokeColor=#B0F373;aspect=fixed;rounded=1;shadow=0;comic=0;fontSize=12" parent="1" vertex="1">
          <mxGeometry x="1417" y="975" width="62" height="53" as="geometry" />
        </mxCell>
        <mxCell id="1a8abee3a6cfdf20-25" value="" style="verticalLabelPosition=bottom;html=1;verticalAlign=top;strokeWidth=1;dashed=0;shape=mxgraph.aws3d.arrowhead;aspect=fixed;rounded=1;shadow=0;comic=0;fillColor=none;fontFamily=Verdana;fontSize=12;fontColor=#000000;flipV=1;" parent="1" vertex="1">
          <mxGeometry x="341" y="1291" width="39" height="23" as="geometry" />
        </mxCell>
        <mxCell id="1a8abee3a6cfdf20-27" value="" style="verticalLabelPosition=bottom;html=1;verticalAlign=top;strokeWidth=1;dashed=0;shape=mxgraph.aws3d.arrowhead;aspect=fixed;rounded=1;shadow=0;comic=0;fillColor=none;fontFamily=Verdana;fontSize=12;fontColor=#000000;flipV=1;" parent="1" vertex="1">
          <mxGeometry x="401" y="1328" width="39" height="23" as="geometry" />
        </mxCell>
        <mxCell id="1a8abee3a6cfdf20-1" value="" style="verticalLabelPosition=bottom;html=1;verticalAlign=top;strokeWidth=1;dashed=0;shape=mxgraph.aws3d.secureConnection;fillColor=#000000;strokeColor=#ffffff;aspect=fixed;rounded=1;shadow=0;comic=0;fontSize=12" parent="1" vertex="1">
          <mxGeometry x="203" y="1068" width="56.99999999999999" height="34" as="geometry" />
        </mxCell>
        <mxCell id="1a8abee3a6cfdf20-29" value="" style="verticalLabelPosition=bottom;html=1;verticalAlign=top;strokeWidth=1;dashed=0;shape=mxgraph.aws3d.dashedEdgeDouble;fillColor=#000000;aspect=fixed;rounded=1;shadow=0;comic=0;fontFamily=Verdana;fontSize=12;flipV=1;" parent="1" vertex="1">
          <mxGeometry x="434" y="920" width="87" height="50" as="geometry" />
        </mxCell>
        <mxCell id="1a8abee3a6cfdf20-30" value="" style="verticalLabelPosition=bottom;html=1;verticalAlign=top;strokeWidth=1;dashed=0;shape=mxgraph.aws3d.dashedEdgeDouble;fillColor=#000000;aspect=fixed;rounded=1;shadow=0;comic=0;fontFamily=Verdana;fontSize=12;flipV=1;" parent="1" vertex="1">
          <mxGeometry x="689" y="777" width="87" height="50" as="geometry" />
        </mxCell>
        <mxCell id="1a8abee3a6cfdf20-33" value="" style="verticalLabelPosition=bottom;html=1;verticalAlign=top;strokeWidth=1;dashed=0;shape=mxgraph.aws3d.arrowSE;fillColor=#000000;aspect=fixed;rounded=1;shadow=0;comic=0;fontFamily=Verdana;fontSize=12;" parent="1" vertex="1">
          <mxGeometry x="417" y="788" width="88" height="50" as="geometry" />
        </mxCell>
        <mxCell id="1a8abee3a6cfdf20-34" value="" style="verticalLabelPosition=bottom;html=1;verticalAlign=top;strokeWidth=1;dashed=0;shape=mxgraph.aws3d.arrowSW;fillColor=#000000;aspect=fixed;rounded=1;shadow=0;comic=0;fontFamily=Verdana;fontSize=12;" parent="1" vertex="1">
          <mxGeometry x="432" y="478" width="362" height="207" as="geometry" />
        </mxCell>
        <mxCell id="1a8abee3a6cfdf20-35" value="" style="verticalLabelPosition=bottom;html=1;verticalAlign=top;strokeWidth=1;dashed=0;shape=mxgraph.aws3d.arrowSE;fillColor=#000000;aspect=fixed;rounded=1;shadow=0;comic=0;fontFamily=Verdana;fontSize=12" parent="1" vertex="1">
          <mxGeometry x="1295" y="993" width="57" height="33" as="geometry" />
        </mxCell>
        <mxCell id="1a8abee3a6cfdf20-36" value="" style="verticalLabelPosition=bottom;html=1;verticalAlign=top;strokeWidth=1;dashed=0;shape=mxgraph.aws3d.arrowSW;fillColor=#000000;aspect=fixed;rounded=1;shadow=0;comic=0;fontFamily=Verdana;fontSize=12" parent="1" vertex="1">
          <mxGeometry x="1522" y="922" width="195" height="110" as="geometry" />
        </mxCell>
        <mxCell id="1a8abee3a6cfdf20-37" value="" style="verticalLabelPosition=bottom;html=1;verticalAlign=top;strokeWidth=1;dashed=0;shape=mxgraph.aws3d.arrowSW;fillColor=#000000;aspect=fixed;rounded=1;shadow=0;comic=0;fontFamily=Verdana;fontSize=12" parent="1" vertex="1">
          <mxGeometry x="1276" y="1105" width="119" height="68" as="geometry" />
        </mxCell>
        <mxCell id="1a8abee3a6cfdf20-39" value="" style="verticalLabelPosition=bottom;html=1;verticalAlign=top;strokeWidth=1;dashed=0;shape=mxgraph.aws3d.arrowSE;fillColor=#000000;aspect=fixed;rounded=1;shadow=0;comic=0;fontFamily=Verdana;fontSize=12" parent="1" vertex="1">
          <mxGeometry x="1250" y="1314" width="102" height="58" as="geometry" />
        </mxCell>
        <mxCell id="d5ac148becb70bc-1" value="" style="verticalLabelPosition=bottom;html=1;verticalAlign=top;strokeWidth=1;dashed=0;shape=mxgraph.aws3d.arrowSE;fillColor=#000000;aspect=fixed;rounded=1;shadow=0;comic=0;fontFamily=Verdana;fontSize=12" parent="1" vertex="1">
          <mxGeometry x="1509" y="1458" width="143" height="81" as="geometry" />
        </mxCell>
        <mxCell id="d5ac148becb70bc-2" value="" style="verticalLabelPosition=bottom;html=1;verticalAlign=top;strokeWidth=1;dashed=0;shape=mxgraph.aws3d.snapshot;fillColor=#4286c5;strokeColor=#57A2D8;aspect=fixed;rounded=1;shadow=0;comic=0;fontFamily=Verdana;fontSize=12" parent="1" vertex="1">
          <mxGeometry x="1942" y="1408" width="92" height="60" as="geometry" />
        </mxCell>
        <mxCell id="d5ac148becb70bc-3" value="" style="verticalLabelPosition=bottom;html=1;verticalAlign=top;strokeWidth=1;dashed=0;shape=mxgraph.aws3d.rdsMaster;fillColor=#ECECEC;strokeColor=#5E5E5E;aspect=fixed;rounded=1;shadow=0;comic=0;fontFamily=Verdana;fontSize=12" parent="1" vertex="1">
          <mxGeometry x="1662" y="1492" width="123" height="133" as="geometry" />
        </mxCell>
        <mxCell id="d5ac148becb70bc-4" value="" style="verticalLabelPosition=bottom;html=1;verticalAlign=top;strokeWidth=1;dashed=0;shape=mxgraph.aws3d.arrowSW;fillColor=#000000;aspect=fixed;rounded=1;shadow=0;comic=0;fontFamily=Verdana;fontSize=12" parent="1" vertex="1">
          <mxGeometry x="1792" y="1458" width="171" height="97" as="geometry" />
        </mxCell>
        <mxCell id="d5ac148becb70bc-5" value="" style="verticalLabelPosition=bottom;html=1;verticalAlign=top;strokeWidth=1;dashed=0;shape=mxgraph.aws3d.arrowSE;fillColor=#000000;aspect=fixed;rounded=1;shadow=0;comic=0;fontFamily=Verdana;fontSize=12" parent="1" vertex="1">
          <mxGeometry x="1832" y="1317" width="134" height="76" as="geometry" />
        </mxCell>
        <mxCell id="d5ac148becb70bc-6" value="" style="verticalLabelPosition=bottom;html=1;verticalAlign=top;strokeWidth=1;dashed=0;shape=mxgraph.aws3d.arrowSW;fillColor=#000000;aspect=fixed;rounded=1;shadow=0;comic=0;fontFamily=Verdana;fontSize=12" parent="1" vertex="1">
          <mxGeometry x="2092" y="1241" width="246" height="140" as="geometry" />
        </mxCell>
        <mxCell id="d5ac148becb70bc-8" value="" style="verticalLabelPosition=bottom;html=1;verticalAlign=top;strokeWidth=1;dashed=0;shape=mxgraph.aws3d.dashedArrowlessEdge;aspect=fixed;rounded=1;shadow=0;comic=0;fontFamily=Verdana;fontSize=12" parent="1" vertex="1">
          <mxGeometry x="840" y="564" width="1432" height="816" as="geometry" />
        </mxCell>
        <mxCell id="d5ac148becb70bc-9" value="" style="verticalLabelPosition=bottom;html=1;verticalAlign=top;strokeWidth=1;dashed=0;shape=mxgraph.aws3d.dashedArrowlessEdge;aspect=fixed;rounded=1;shadow=0;comic=0;fontFamily=Verdana;fontSize=12" parent="1" vertex="1">
          <mxGeometry x="592" y="705" width="1432" height="816" as="geometry" />
        </mxCell>
        <mxCell id="d5ac148becb70bc-10" value="" style="verticalLabelPosition=bottom;html=1;verticalAlign=top;strokeWidth=1;dashed=0;shape=mxgraph.aws3d.dashedArrowlessEdge;fillColor=#000000;aspect=fixed;rounded=1;shadow=0;comic=0;fontFamily=Verdana;fontSize=12;fontColor=#000000;flipV=1;" parent="1" vertex="1">
          <mxGeometry x="592" y="564" width="248" height="141" as="geometry" />
        </mxCell>
        <mxCell id="d5ac148becb70bc-12" value="" style="verticalLabelPosition=bottom;html=1;verticalAlign=top;strokeWidth=1;dashed=0;shape=mxgraph.aws3d.dashedArrowlessEdge;aspect=fixed;rounded=1;shadow=0;comic=0;fontFamily=Verdana;fontSize=12;flipV=1;" parent="1" vertex="1">
          <mxGeometry x="2023" y="1378" width="249" height="142" as="geometry" />
        </mxCell>
        <mxCell id="1a8abee3a6cfdf20-2" value="" style="verticalLabelPosition=bottom;html=1;verticalAlign=top;strokeWidth=1;dashed=0;shape=mxgraph.aws3d.secureConnection;fillColor=#000000;strokeColor=#ffffff;aspect=fixed;rounded=1;shadow=0;comic=0;fontSize=12" parent="1" vertex="1">
          <mxGeometry x="911" y="1358" width="56.99999999999999" height="34" as="geometry" />
        </mxCell>
        <mxCell id="d5ac148becb70bc-14" value="" style="edgeStyle=isometricEdgeStyle;endArrow=none;html=1;labelBackgroundColor=none;strokeWidth=5;fontFamily=Verdana;fontSize=12" parent="1" edge="1">
          <mxGeometry width="50" height="100" relative="1" as="geometry">
            <mxPoint x="462" y="1368" as="sourcePoint" />
            <mxPoint x="1602" y="1668" as="targetPoint" />
            <Array as="points">
              <mxPoint x="902" y="1558" />
            </Array>
          </mxGeometry>
        </mxCell>
        <mxCell id="d5ac148becb70bc-15" value="" style="verticalLabelPosition=bottom;html=1;verticalAlign=top;strokeWidth=1;dashed=0;shape=mxgraph.aws3d.arrowhead;aspect=fixed;rounded=1;shadow=0;comic=0;fillColor=none;fontFamily=Verdana;fontSize=12;fontColor=#000000;flipV=1;" parent="1" vertex="1">
          <mxGeometry x="443" y="1356" width="39" height="23" as="geometry" />
        </mxCell>
        <mxCell id="d5ac148becb70bc-16" value="" style="verticalLabelPosition=bottom;html=1;verticalAlign=top;strokeWidth=1;dashed=0;shape=mxgraph.aws3d.secureConnection;fillColor=#000000;strokeColor=#ffffff;aspect=fixed;rounded=1;shadow=0;comic=0;fontSize=12" parent="1" vertex="1">
          <mxGeometry x="1538" y="1668" width="56.99999999999999" height="34" as="geometry" />
        </mxCell>
      </root>
    </mxGraphModel>
  </diagram>
  <diagram id="nsjqCTBeV3pLZmGyA_B5" name="第 2 页">
    <mxGraphModel dx="788" dy="531" grid="1" gridSize="10" guides="1" tooltips="1" connect="1" arrows="1" fold="1" page="1" pageScale="1" pageWidth="827" pageHeight="1169" math="0" shadow="0">
      <root>
        <mxCell id="tBE1hfO_hj8k_L_EN7YG-0" />
        <mxCell id="tBE1hfO_hj8k_L_EN7YG-1" parent="tBE1hfO_hj8k_L_EN7YG-0" />
        <mxCell id="tBE1hfO_hj8k_L_EN7YG-8" value="" style="outlineConnect=0;dashed=0;verticalLabelPosition=bottom;verticalAlign=top;align=center;html=1;shape=mxgraph.aws3.redshift;fillColor=#2E73B8;gradientColor=none;rounded=0;" parent="tBE1hfO_hj8k_L_EN7YG-1" vertex="1">
          <mxGeometry x="660" y="750" width="57.5" height="65" as="geometry" />
        </mxCell>
        <mxCell id="2m4aps0aa2nexwvibtKB-0" value="" style="verticalLabelPosition=bottom;html=1;verticalAlign=top;strokeWidth=1;align=center;outlineConnect=0;dashed=0;outlineConnect=0;shape=mxgraph.aws3d.lambda;fillColor=#ECECEC;strokeColor=#5E5E5E;aspect=fixed;rounded=0;" parent="tBE1hfO_hj8k_L_EN7YG-1" vertex="1">
          <mxGeometry x="270" y="552.01" width="42" height="49.99" as="geometry" />
        </mxCell>
        <mxCell id="31tEx8QUbXNg7sP5hSZv-0" value="" style="verticalLabelPosition=bottom;html=1;verticalAlign=top;strokeWidth=1;align=center;outlineConnect=0;dashed=0;outlineConnect=0;shape=mxgraph.aws3d.end_user;strokeColor=none;fillColor=#777777;aspect=fixed;rounded=0;" parent="tBE1hfO_hj8k_L_EN7YG-1" vertex="1">
          <mxGeometry x="99.73" y="510" width="29.27" height="60" as="geometry" />
        </mxCell>
        <mxCell id="dkaP28YmC-CtWKrI2Xkm-2" value="" style="verticalLabelPosition=bottom;html=1;verticalAlign=top;strokeWidth=1;align=center;outlineConnect=0;dashed=0;outlineConnect=0;shape=mxgraph.aws3d.s3;fillColor=#7EA6E0;strokeColor=#5E5E5E;aspect=fixed;hachureGap=4;pointerEvents=0;" parent="tBE1hfO_hj8k_L_EN7YG-1" vertex="1">
          <mxGeometry x="370" y="343" width="52.13" height="53.82" as="geometry" />
        </mxCell>
        <mxCell id="dkaP28YmC-CtWKrI2Xkm-3" value="" style="verticalLabelPosition=bottom;html=1;verticalAlign=top;strokeWidth=1;align=center;outlineConnect=0;dashed=0;outlineConnect=0;shape=mxgraph.aws3d.application_server;fillColor=#ECECEC;strokeColor=#5E5E5E;aspect=fixed;hachureGap=4;pointerEvents=0;" parent="tBE1hfO_hj8k_L_EN7YG-1" vertex="1">
          <mxGeometry x="619.1899999999999" y="100" width="93" height="93.76" as="geometry" />
        </mxCell>
        <mxCell id="dkaP28YmC-CtWKrI2Xkm-4" value="" style="verticalLabelPosition=bottom;html=1;verticalAlign=top;strokeWidth=1;align=center;outlineConnect=0;dashed=0;outlineConnect=0;shape=mxgraph.aws3d.application_server;fillColor=#ECECEC;strokeColor=#5E5E5E;aspect=fixed;hachureGap=4;pointerEvents=0;" parent="tBE1hfO_hj8k_L_EN7YG-1" vertex="1">
          <mxGeometry x="562.17" y="140" width="93" height="93.76" as="geometry" />
        </mxCell>
        <mxCell id="dkaP28YmC-CtWKrI2Xkm-5" value="" style="verticalLabelPosition=bottom;html=1;verticalAlign=top;strokeWidth=1;align=center;outlineConnect=0;dashed=0;outlineConnect=0;shape=mxgraph.aws3d.application_server;fillColor=#ECECEC;strokeColor=#5E5E5E;aspect=fixed;hachureGap=4;pointerEvents=0;" parent="tBE1hfO_hj8k_L_EN7YG-1" vertex="1">
          <mxGeometry x="672.17" y="134.88" width="103.16" height="104" as="geometry" />
        </mxCell>
        <mxCell id="dkaP28YmC-CtWKrI2Xkm-6" value="" style="verticalLabelPosition=bottom;html=1;verticalAlign=top;strokeWidth=1;align=center;outlineConnect=0;dashed=0;outlineConnect=0;shape=mxgraph.aws3d.application_server;fillColor=#ECECEC;strokeColor=#5E5E5E;aspect=fixed;hachureGap=4;pointerEvents=0;" parent="tBE1hfO_hj8k_L_EN7YG-1" vertex="1">
          <mxGeometry x="616.17" y="169.92000000000002" width="99.03" height="99.84" as="geometry" />
        </mxCell>
        <mxCell id="N07oXS3DW9yIB8fiAPG2-0" value="" style="endArrow=classicThin;html=1;sourcePerimeterSpacing=8;targetPerimeterSpacing=8;strokeWidth=2;startArrow=none;startFill=0;endFill=1;" parent="tBE1hfO_hj8k_L_EN7YG-1" edge="1">
          <mxGeometry width="50" height="50" relative="1" as="geometry">
            <mxPoint x="135" y="547" as="sourcePoint" />
            <mxPoint x="370" y="390" as="targetPoint" />
          </mxGeometry>
        </mxCell>
        <mxCell id="DWlXAn_-Y49QjnmiiAoQ-0" value="Git" style="text;html=1;strokeColor=none;fillColor=none;align=center;verticalAlign=middle;whiteSpace=wrap;rounded=0;hachureGap=4;pointerEvents=0;" parent="tBE1hfO_hj8k_L_EN7YG-1" vertex="1">
          <mxGeometry x="260" y="610" width="40" height="20" as="geometry" />
        </mxCell>
        <mxCell id="DWlXAn_-Y49QjnmiiAoQ-1" value="S3" style="text;html=1;strokeColor=none;fillColor=none;align=center;verticalAlign=middle;whiteSpace=wrap;rounded=0;hachureGap=4;pointerEvents=0;" parent="tBE1hfO_hj8k_L_EN7YG-1" vertex="1">
          <mxGeometry x="376.07" y="396.82" width="40" height="20" as="geometry" />
        </mxCell>
        <mxCell id="DWlXAn_-Y49QjnmiiAoQ-2" value="Developer" style="text;html=1;strokeColor=none;fillColor=none;align=center;verticalAlign=middle;whiteSpace=wrap;rounded=0;hachureGap=4;pointerEvents=0;" parent="tBE1hfO_hj8k_L_EN7YG-1" vertex="1">
          <mxGeometry x="94.37" y="570" width="40" height="20" as="geometry" />
        </mxCell>
        <mxCell id="u9xDWmB2QUnADfMk04aD-0" value="" style="edgeStyle=isometricEdgeStyle;endArrow=none;html=1;labelBackgroundColor=none;strokeWidth=2;fontFamily=Verdana;fontSize=12;endSize=2;startSize=2;" parent="tBE1hfO_hj8k_L_EN7YG-1" edge="1">
          <mxGeometry width="50" height="100" relative="1" as="geometry">
            <mxPoint x="340" y="728.87" as="sourcePoint" />
            <mxPoint x="30" y="708.87" as="targetPoint" />
            <Array as="points">
              <mxPoint x="130" y="688.87" />
            </Array>
          </mxGeometry>
        </mxCell>
        <mxCell id="BTR6O65u8SafIO6M4PBs-0" value="" style="endArrow=none;html=1;startSize=2;endSize=2;sourcePerimeterSpacing=8;targetPerimeterSpacing=8;strokeWidth=2;endFill=0;startArrow=classicThin;startFill=1;" parent="tBE1hfO_hj8k_L_EN7YG-1" edge="1">
          <mxGeometry width="50" height="50" relative="1" as="geometry">
            <mxPoint x="263" y="587" as="sourcePoint" />
            <mxPoint x="163" y="527" as="targetPoint" />
          </mxGeometry>
        </mxCell>
        <mxCell id="BTR6O65u8SafIO6M4PBs-1" value="" style="endArrow=classicThin;html=1;sourcePerimeterSpacing=8;targetPerimeterSpacing=8;strokeWidth=2;startArrow=none;startFill=0;endFill=1;" parent="tBE1hfO_hj8k_L_EN7YG-1" edge="1">
          <mxGeometry width="50" height="50" relative="1" as="geometry">
            <mxPoint x="39.73" y="460" as="sourcePoint" />
            <mxPoint x="99.73000000000002" y="423" as="targetPoint" />
          </mxGeometry>
        </mxCell>
        <mxCell id="BTR6O65u8SafIO6M4PBs-2" value="" style="verticalLabelPosition=bottom;html=1;verticalAlign=top;strokeWidth=1;align=center;outlineConnect=0;dashed=0;outlineConnect=0;shape=mxgraph.aws3d.worker;fillColor=#ECECEC;strokeColor=#5E5E5E;aspect=fixed;hachureGap=4;pointerEvents=0;" parent="tBE1hfO_hj8k_L_EN7YG-1" vertex="1">
          <mxGeometry x="356.82" y="620" width="45.88" height="31" as="geometry" />
        </mxCell>
        <mxCell id="BTR6O65u8SafIO6M4PBs-4" value="Code Analysis" style="text;html=1;strokeColor=none;fillColor=none;align=center;verticalAlign=middle;whiteSpace=wrap;rounded=0;hachureGap=4;pointerEvents=0;" parent="tBE1hfO_hj8k_L_EN7YG-1" vertex="1">
          <mxGeometry x="356.82" y="662.88" width="40" height="20" as="geometry" />
        </mxCell>
        <mxCell id="BTR6O65u8SafIO6M4PBs-5" value="" style="verticalLabelPosition=bottom;html=1;verticalAlign=top;strokeWidth=1;align=center;outlineConnect=0;dashed=0;outlineConnect=0;shape=mxgraph.aws3d.worker;fillColor=#FFB366;strokeColor=#5E5E5E;aspect=fixed;hachureGap=4;pointerEvents=0;" parent="tBE1hfO_hj8k_L_EN7YG-1" vertex="1">
          <mxGeometry x="440" y="670" width="45.88" height="31" as="geometry" />
        </mxCell>
        <mxCell id="BTR6O65u8SafIO6M4PBs-6" value="" style="endArrow=classicThin;html=1;sourcePerimeterSpacing=8;targetPerimeterSpacing=8;strokeWidth=2;startArrow=none;startFill=0;endFill=1;" parent="tBE1hfO_hj8k_L_EN7YG-1" edge="1">
          <mxGeometry width="50" height="50" relative="1" as="geometry">
            <mxPoint x="169.9999999999999" y="701.0000000000002" as="sourcePoint" />
            <mxPoint x="200" y="682.1800000000001" as="targetPoint" />
            <Array as="points">
              <mxPoint x="170" y="700.87" />
            </Array>
          </mxGeometry>
        </mxCell>
        <mxCell id="BTR6O65u8SafIO6M4PBs-7" value="Unit&lt;br&gt;Test" style="text;html=1;strokeColor=none;fillColor=none;align=center;verticalAlign=middle;whiteSpace=wrap;rounded=0;hachureGap=4;pointerEvents=0;" parent="tBE1hfO_hj8k_L_EN7YG-1" vertex="1">
          <mxGeometry x="442.94" y="712.19" width="40" height="20" as="geometry" />
        </mxCell>
        <mxCell id="BTR6O65u8SafIO6M4PBs-8" value="" style="endArrow=classicThin;html=1;sourcePerimeterSpacing=8;targetPerimeterSpacing=8;strokeWidth=2;startArrow=none;startFill=0;endFill=1;" parent="tBE1hfO_hj8k_L_EN7YG-1" edge="1">
          <mxGeometry width="50" height="50" relative="1" as="geometry">
            <mxPoint x="151.8599999999999" y="662.8800000000001" as="sourcePoint" />
            <mxPoint x="181.86" y="644.06" as="targetPoint" />
          </mxGeometry>
        </mxCell>
        <mxCell id="A0wPwYVv-zTo_8jrQD_y-1" value="" style="endArrow=classicThin;html=1;sourcePerimeterSpacing=8;targetPerimeterSpacing=8;strokeWidth=2;startArrow=none;startFill=0;endFill=1;" parent="tBE1hfO_hj8k_L_EN7YG-1" edge="1">
          <mxGeometry width="50" height="50" relative="1" as="geometry">
            <mxPoint x="308" y="609.99" as="sourcePoint" />
            <mxPoint x="348" y="634.99" as="targetPoint" />
          </mxGeometry>
        </mxCell>
        <mxCell id="A0wPwYVv-zTo_8jrQD_y-3" value="" style="endArrow=classicThin;html=1;sourcePerimeterSpacing=8;targetPerimeterSpacing=8;strokeWidth=2;startArrow=none;startFill=0;endFill=1;" parent="tBE1hfO_hj8k_L_EN7YG-1" edge="1">
          <mxGeometry width="50" height="50" relative="1" as="geometry">
            <mxPoint x="393.88" y="660.38" as="sourcePoint" />
            <mxPoint x="433.88" y="685.38" as="targetPoint" />
          </mxGeometry>
        </mxCell>
        <mxCell id="A0wPwYVv-zTo_8jrQD_y-5" value="" style="endArrow=none;html=1;sourcePerimeterSpacing=8;targetPerimeterSpacing=8;strokeWidth=2;startArrow=none;startFill=0;endFill=0;" parent="tBE1hfO_hj8k_L_EN7YG-1" edge="1">
          <mxGeometry width="50" height="50" relative="1" as="geometry">
            <mxPoint x="470.0000000000001" y="707.19" as="sourcePoint" />
            <mxPoint x="510.0000000000001" y="732.19" as="targetPoint" />
          </mxGeometry>
        </mxCell>
        <mxCell id="A0wPwYVv-zTo_8jrQD_y-6" value="" style="endArrow=none;html=1;sourcePerimeterSpacing=8;targetPerimeterSpacing=8;strokeWidth=2;startArrow=none;startFill=0;endFill=0;" parent="tBE1hfO_hj8k_L_EN7YG-1" edge="1">
          <mxGeometry width="50" height="50" relative="1" as="geometry">
            <mxPoint x="509.9999999999999" y="732.19" as="sourcePoint" />
            <mxPoint x="830" y="520" as="targetPoint" />
          </mxGeometry>
        </mxCell>
        <mxCell id="A0wPwYVv-zTo_8jrQD_y-8" value="" style="endArrow=none;html=1;sourcePerimeterSpacing=8;targetPerimeterSpacing=8;strokeWidth=2;startArrow=classicThin;startFill=1;endFill=0;" parent="tBE1hfO_hj8k_L_EN7YG-1" edge="1">
          <mxGeometry width="50" height="50" relative="1" as="geometry">
            <mxPoint x="540" y="610" as="sourcePoint" />
            <mxPoint x="620" y="660" as="targetPoint" />
          </mxGeometry>
        </mxCell>
        <mxCell id="8QtvbvFqvaqJi-UxOV-O-0" value="" style="verticalLabelPosition=bottom;html=1;verticalAlign=top;strokeWidth=1;align=center;outlineConnect=0;dashed=0;outlineConnect=0;shape=mxgraph.aws3d.dataCenter;strokeColor=#5E5E5E;aspect=fixed;hachureGap=4;pointerEvents=0;fillColor=#ECECEC;" parent="tBE1hfO_hj8k_L_EN7YG-1" vertex="1">
          <mxGeometry x="594.5" y="473.53000000000003" width="56" height="64.65" as="geometry" />
        </mxCell>
        <mxCell id="8QtvbvFqvaqJi-UxOV-O-1" value="" style="verticalLabelPosition=bottom;html=1;verticalAlign=top;strokeWidth=1;align=center;outlineConnect=0;dashed=0;outlineConnect=0;shape=mxgraph.aws3d.application2;fillColor=#86E83A;strokeColor=#B0F373;aspect=fixed;hachureGap=4;pointerEvents=0;" parent="tBE1hfO_hj8k_L_EN7YG-1" vertex="1">
          <mxGeometry x="605" y="470" width="35" height="29.92" as="geometry" />
        </mxCell>
        <mxCell id="5qxOIhKUm57pYzBZC1dw-0" value="Harbor" style="text;html=1;strokeColor=none;fillColor=none;align=center;verticalAlign=middle;whiteSpace=wrap;rounded=0;hachureGap=4;pointerEvents=0;" parent="tBE1hfO_hj8k_L_EN7YG-1" vertex="1">
          <mxGeometry x="610.5" y="544" width="40" height="20" as="geometry" />
        </mxCell>
        <mxCell id="5qxOIhKUm57pYzBZC1dw-1" value="" style="verticalLabelPosition=bottom;html=1;verticalAlign=top;strokeWidth=1;align=center;outlineConnect=0;dashed=0;outlineConnect=0;shape=mxgraph.aws3d.application2;fillColor=#86E83A;strokeColor=#B0F373;aspect=fixed;hachureGap=4;pointerEvents=0;" parent="tBE1hfO_hj8k_L_EN7YG-1" vertex="1">
          <mxGeometry x="510" y="570" width="35" height="29.92" as="geometry" />
        </mxCell>
        <mxCell id="5qxOIhKUm57pYzBZC1dw-2" value="Build" style="text;html=1;strokeColor=none;fillColor=none;align=center;verticalAlign=middle;whiteSpace=wrap;rounded=0;hachureGap=4;pointerEvents=0;" parent="tBE1hfO_hj8k_L_EN7YG-1" vertex="1">
          <mxGeometry x="505" y="610" width="40" height="20" as="geometry" />
        </mxCell>
        <mxCell id="5qxOIhKUm57pYzBZC1dw-3" value="" style="endArrow=classicThin;html=1;sourcePerimeterSpacing=8;targetPerimeterSpacing=8;strokeWidth=2;startArrow=none;startFill=0;endFill=1;" parent="tBE1hfO_hj8k_L_EN7YG-1" edge="1">
          <mxGeometry width="50" height="50" relative="1" as="geometry">
            <mxPoint x="562.1699999999998" y="584.0000000000001" as="sourcePoint" />
            <mxPoint x="605" y="556.65" as="targetPoint" />
          </mxGeometry>
        </mxCell>
        <mxCell id="Fq-pKJOJiZkRkuJM-7wx-0" value="" style="endArrow=none;html=1;sourcePerimeterSpacing=8;targetPerimeterSpacing=8;strokeWidth=2;startArrow=classicThin;startFill=1;endFill=0;" parent="tBE1hfO_hj8k_L_EN7YG-1" edge="1">
          <mxGeometry width="50" height="50" relative="1" as="geometry">
            <mxPoint x="451.56" y="553.79" as="sourcePoint" />
            <mxPoint x="492.88000000000005" y="578.2900000000001" as="targetPoint" />
          </mxGeometry>
        </mxCell>
        <mxCell id="zUPaT5p2zTUgBJ7T0xlx-1" value="" style="verticalLabelPosition=bottom;html=1;verticalAlign=top;strokeWidth=1;align=center;outlineConnect=0;dashed=0;outlineConnect=0;shape=mxgraph.aws3d.elasticLoadBalancing;fillColor=#ECECEC;strokeColor=#5E5E5E;aspect=fixed;hachureGap=4;pointerEvents=0;" vertex="1" parent="tBE1hfO_hj8k_L_EN7YG-1">
          <mxGeometry x="402.70000000000005" y="501.12000000000006" width="47.13" height="45.17" as="geometry" />
        </mxCell>
        <mxCell id="zUPaT5p2zTUgBJ7T0xlx-2" value="Deploy" style="text;html=1;strokeColor=none;fillColor=none;align=center;verticalAlign=middle;whiteSpace=wrap;rounded=0;hachureGap=4;pointerEvents=0;" vertex="1" parent="tBE1hfO_hj8k_L_EN7YG-1">
          <mxGeometry x="402.70000000000005" y="558.29" width="40" height="20" as="geometry" />
        </mxCell>
        <mxCell id="zUPaT5p2zTUgBJ7T0xlx-4" value="" style="verticalLabelPosition=bottom;html=1;verticalAlign=top;strokeWidth=1;align=center;outlineConnect=0;dashed=0;outlineConnect=0;shape=mxgraph.aws3d.worker;fillColor=#FFB366;strokeColor=#5E5E5E;aspect=fixed;hachureGap=4;pointerEvents=0;" vertex="1" parent="tBE1hfO_hj8k_L_EN7YG-1">
          <mxGeometry x="315.41" y="461.11999999999995" width="45.88" height="31" as="geometry" />
        </mxCell>
        <mxCell id="zUPaT5p2zTUgBJ7T0xlx-5" value="" style="endArrow=none;html=1;sourcePerimeterSpacing=8;targetPerimeterSpacing=8;strokeWidth=2;startArrow=classicThin;startFill=1;endFill=0;" edge="1" parent="tBE1hfO_hj8k_L_EN7YG-1">
          <mxGeometry width="50" height="50" relative="1" as="geometry">
            <mxPoint x="352.1" y="498.87" as="sourcePoint" />
            <mxPoint x="393.4200000000002" y="523.37" as="targetPoint" />
          </mxGeometry>
        </mxCell>
        <mxCell id="zUPaT5p2zTUgBJ7T0xlx-6" value="BVT&lt;br&gt;Test" style="text;html=1;strokeColor=none;fillColor=none;align=center;verticalAlign=middle;whiteSpace=wrap;rounded=0;hachureGap=4;pointerEvents=0;" vertex="1" parent="tBE1hfO_hj8k_L_EN7YG-1">
          <mxGeometry x="318.35" y="501.12" width="40" height="20" as="geometry" />
        </mxCell>
        <mxCell id="zUPaT5p2zTUgBJ7T0xlx-7" value="" style="verticalLabelPosition=bottom;html=1;verticalAlign=top;strokeWidth=1;align=center;outlineConnect=0;dashed=0;outlineConnect=0;shape=mxgraph.aws3d.simpleDb;fillColor=#ECECEC;strokeColor=#5E5E5E;aspect=fixed;hachureGap=4;pointerEvents=0;" vertex="1" parent="tBE1hfO_hj8k_L_EN7YG-1">
          <mxGeometry x="485.88" y="422.18" width="47" height="50.82" as="geometry" />
        </mxCell>
        <mxCell id="zUPaT5p2zTUgBJ7T0xlx-8" value="Cynosure" style="text;html=1;strokeColor=none;fillColor=none;align=center;verticalAlign=middle;whiteSpace=wrap;rounded=0;hachureGap=4;pointerEvents=0;" vertex="1" parent="tBE1hfO_hj8k_L_EN7YG-1">
          <mxGeometry x="492.88" y="490" width="40" height="20" as="geometry" />
        </mxCell>
        <mxCell id="zUPaT5p2zTUgBJ7T0xlx-9" value="" style="endArrow=none;html=1;sourcePerimeterSpacing=8;targetPerimeterSpacing=8;strokeWidth=2;startArrow=classicThin;startFill=1;endFill=0;" edge="1" parent="tBE1hfO_hj8k_L_EN7YG-1">
          <mxGeometry width="50" height="50" relative="1" as="geometry">
            <mxPoint x="449.8299999999998" y="510" as="sourcePoint" />
            <mxPoint x="492.65999999999997" y="482.65" as="targetPoint" />
          </mxGeometry>
        </mxCell>
        <mxCell id="zImJIc52vUdq1Cjp_KCG-1" value="" style="endArrow=none;html=1;startSize=2;endSize=2;sourcePerimeterSpacing=8;targetPerimeterSpacing=8;strokeWidth=2;endFill=0;startArrow=none;startFill=0;dashed=1;" edge="1" parent="tBE1hfO_hj8k_L_EN7YG-1">
          <mxGeometry width="50" height="50" relative="1" as="geometry">
            <mxPoint x="633.74" y="599.92" as="sourcePoint" />
            <mxPoint x="350.0000000000001" y="429.84000000000003" as="targetPoint" />
          </mxGeometry>
        </mxCell>
        <mxCell id="zImJIc52vUdq1Cjp_KCG-2" value="" style="endArrow=none;html=1;startSize=2;endSize=2;sourcePerimeterSpacing=8;targetPerimeterSpacing=8;strokeWidth=2;endFill=0;startArrow=none;startFill=0;dashed=1;" edge="1" parent="tBE1hfO_hj8k_L_EN7YG-1">
          <mxGeometry width="50" height="50" relative="1" as="geometry">
            <mxPoint x="537.9300000000001" y="665.0400000000001" as="sourcePoint" />
            <mxPoint x="254.19" y="494.96" as="targetPoint" />
          </mxGeometry>
        </mxCell>
        <mxCell id="zImJIc52vUdq1Cjp_KCG-3" value="" style="endArrow=none;html=1;sourcePerimeterSpacing=8;targetPerimeterSpacing=8;strokeWidth=2;startArrow=none;startFill=0;endFill=0;dashed=1;" edge="1" parent="tBE1hfO_hj8k_L_EN7YG-1">
          <mxGeometry width="50" height="50" relative="1" as="geometry">
            <mxPoint x="545" y="666.2900000000001" as="sourcePoint" />
            <mxPoint x="637.5" y="604.7" as="targetPoint" />
          </mxGeometry>
        </mxCell>
        <mxCell id="zImJIc52vUdq1Cjp_KCG-4" value="" style="endArrow=none;html=1;sourcePerimeterSpacing=8;targetPerimeterSpacing=8;strokeWidth=2;startArrow=none;startFill=0;endFill=0;dashed=1;" edge="1" parent="tBE1hfO_hj8k_L_EN7YG-1">
          <mxGeometry width="50" height="50" relative="1" as="geometry">
            <mxPoint x="253" y="491" as="sourcePoint" />
            <mxPoint x="345.5" y="429.4100000000001" as="targetPoint" />
          </mxGeometry>
        </mxCell>
        <mxCell id="rcO9PNoutEc_2NMgX3Gm-0" value="CI" style="text;html=1;strokeColor=none;fillColor=none;align=center;verticalAlign=middle;whiteSpace=wrap;rounded=0;hachureGap=4;pointerEvents=0;fontSize=16;" vertex="1" parent="tBE1hfO_hj8k_L_EN7YG-1">
          <mxGeometry x="266" y="483.12" width="40" height="20" as="geometry" />
        </mxCell>
      </root>
    </mxGraphModel>
  </diagram>
</mxfile>
